<?xml version="1.0" standalone="no"?><!DOCTYPE svg PUBLIC "-//W3C//DTD SVG 1.1//EN" "http://www.w3.org/Graphics/SVG/1.1/DTD/svg11.dtd"><svg t="1654064046844" class="icon" viewBox="0 0 1024 1024" version="1.1" xmlns="http://www.w3.org/2000/svg" p-id="3246" xmlns:xlink="http://www.w3.org/1999/xlink" width="200" height="200"><defs><style type="text/css">@font-face { font-family: feedback-iconfont; src: url("//at.alicdn.com/t/font_1031158_u69w8yhxdu.woff2?t=1630033759944") format("woff2"), url("//at.alicdn.com/t/font_1031158_u69w8yhxdu.woff?t=1630033759944") format("woff"), url("//at.alicdn.com/t/font_1031158_u69w8yhxdu.ttf?t=1630033759944") format("truetype"); }
</style></defs><path d="M278.918227 206.753903c-13.278789 52.348541-23.159005 104.746897-29.637881 157.178465-59.743481 40.885276-95.259676 94.271654-95.259676 148.037189 0 111.582789 152.966227 221.532714 357.97933 221.532713 54.792303 0 105.867762-7.854357 151.297384-21.492929-7.765795 45.329989-18.620195 90.71533-34.165622 137.537037l0.047049-0.005535c-13.538941 44.115027-30.155416 87.759568-49.843892 130.933622l-0.821968 1.793384a71.469665 71.469665 0 0 1-35.164713 35.175783c-35.516195 16.295438-77.455914 1.032303-94.263352-34.088129l-0.498162-1.068281-2.075675-4.549881c-17.250249-38.018076-33.423914-78.989146-48.520995-122.913211l-1.804454-5.277752 0.188195 0.561817C184.71853 812.842897 27.675676 675.588151 27.675676 511.972324c0-130.739892 100.268973-244.641903 248.544173-304.155675l2.698378-1.062746z m261.327568-200.27226a70.64493 70.64493 0 0 1 34.766183 34.785557l0.996325 2.175308a1362.883114 1362.883114 0 0 1 51.617902 130.396714C839.28147 211.098984 996.324324 348.35373 996.324324 511.972324c0 131.1744-100.941492 245.405751-250.041427 304.750703 13.173622-52.398357 22.943135-104.835459 29.308541-157.308541 59.214876-40.807784 94.387892-93.936778 94.387892-147.442162 0-111.582789-152.966227-221.532714-357.97933-221.532713-54.797838 0-105.873297 7.857124-151.305686 21.495697 7.763027-46.115978 19.190314-91.993946 33.913772-137.531503h-0.005535c15.357232-46.262659 32.015222-89.1904 49.9712-128.785989l2.000952-4.386594c16.273297-35.460843 58.210249-51.020108 93.671092-34.749579z m119.157621 452.746379c11.629319 0 21.058422 9.442941 21.058422 21.097167v63.29427c0 11.651459-9.429103 21.097168-21.061189 21.097168H364.599351c-11.632086 0-21.061189-9.445708-21.061189-21.097168v-63.29427c0-11.651459 9.429103-21.099935 21.061189-21.099935h294.801298z" fill="#FF5500" p-id="3247"></path></svg>